{
    "accessors": {
        "accessor_21": {
            "bufferView": "bufferView_29",
            "byteOffset": 0,
            "byteStride": 2,
            "componentType": 5123,
            "count": 1092,
            "max": [
                545
            ],
            "min": [
                0
            ],
            "type": "SCALAR"
        },
        "accessor_23": {
            "bufferView": "bufferView_30",
            "byteOffset": 0,
            "byteStride": 12,
            "componentType": 5126,
            "count": 1092,
            "max": [
                9.21201,
                21.8782,
                18.948
            ],
            "min": [
                -26.331,
                0,
                -18.948
            ],
            "type": "VEC3"
        },
        "accessor_25": {
            "bufferView": "bufferView_30",
            "byteOffset": 13104,
            "byteStride": 12,
            "componentType": 5126,
            "count": 1092,
            "max": [
                1,
                1,
                1
            ],
            "min": [
                -1,
                -1,
                -1
            ],
            "type": "VEC3"
        },
        "accessor_27": {
            "bufferView": "bufferView_30",
            "byteOffset": 26208,
            "byteStride": 8,
            "componentType": 5126,
            "count": 1092,
            "max": [
                0.909123,
                0.495371
            ],
            "min": [
                0.00279522,
                0.00366729
            ],
            "type": "VEC2"
        }
    },
    "animations": {},
    "asset": {
        "generator": "collada2gltf@c5ff32b2d555d43b96ab703fdf0b6695d29fc7d3",
        "premultipliedAlpha": true,
        "profile": {
            "api": "WebGL",
            "version": "1.0.2"
        },
        "version": "1.0.1"
    },
    "bufferViews": {
        "bufferView_29": {
            "buffer": "SurfaceProHolo",
            "byteLength": 2184,
            "byteOffset": 0,
            "target": 34963
        },
        "bufferView_30": {
            "buffer": "SurfaceProHolo",
            "byteLength": 34944,
            "byteOffset": 2184,
            "target": 34962
        }
    },
    "buffers": {
        "SurfaceProHolo": {
            "byteLength": 37128,
            "type": "arraybuffer",
            "uri": "SurfaceProHolo.bin"
        }
    },
    "extensionsUsed": [
        "KHR_materials_common"
    ],
    "images": {
        "SurfaceProHolo_diffuse": {
            "name": "SurfaceProHolo_diffuse",
            "uri": "SurfaceProHolo_diffuse.png"
        }
    },
    "materials": {
        "SurfaceProHolo_Mat-effect": {
            "extensions": {
                "KHR_materials_common": {
                    "doubleSided": false,
                    "jointCount": 0,
                    "technique": "PHONG",
                    "transparent": true,
                    "values": {
                        "ambient": [
                            0,
                            0,
                            0,
                            1
                        ],
                        "diffuse": "texture_SurfaceProHolo_diffuse",
                        "emission": [
                            0,
                            0,
                            0,
                            1
                        ],
                        "shininess": 100,
                        "specular": [
                            0.175,
                            0.175,
                            0.175,
                            1
                        ]
                    }
                }
            },
            "name": "SurfaceProHolo_Mat"
        }
    },
    "meshes": {
        "Untitled_015-mesh": {
            "name": "Untitled.015",
            "primitives": [
                {
                    "attributes": {
                        "NORMAL": "accessor_25",
                        "POSITION": "accessor_23",
                        "TEXCOORD_0": "accessor_27"
                    },
                    "indices": "accessor_21",
                    "material": "SurfaceProHolo_Mat-effect",
                    "mode": 4
                }
            ]
        }
    },
    "nodes": {
        "SurfacePro_Holo": {
            "children": [],
            "matrix": [
                0.01,
                0,
                0,
                0,
                0,
                -1.62921e-09,
                0.01,
                0,
                0,
                -0.01,
                -1.62921e-09,
                0,
                0,
                0,
                0,
                1
            ],
            "meshes": [
                "Untitled_015-mesh"
            ],
            "name": "SurfacePro_Holo"
        },
        "node_1": {
            "children": [
                "SurfacePro_Holo"
            ],
            "matrix": [
                1,
                0,
                0,
                0,
                0,
                0,
                -1,
                0,
                0,
                1,
                0,
                0,
                0,
                0,
                0,
                1
            ],
            "name": "Y_UP_Transform"
        }
    },
    "samplers": {
        "sampler_0": {
            "magFilter": 9729,
            "minFilter": 9729,
            "wrapS": 10497,
            "wrapT": 10497
        }
    },
    "scene": "defaultScene",
    "scenes": {
        "defaultScene": {
            "nodes": [
                "node_1"
            ]
        }
    },
    "skins": {},
    "textures": {
        "texture_SurfaceProHolo_diffuse": {
            "format": 6408,
            "internalFormat": 6408,
            "sampler": "sampler_0",
            "source": "SurfaceProHolo_diffuse",
            "target": 3553,
            "type": 5121
        }
    }
}