{
    "accessors": {
        "accessor_16": {
            "bufferView": "bufferView_42",
            "byteOffset": 744,
            "byteStride": 2,
            "componentType": 5123,
            "count": 240,
            "max": [
                119
            ],
            "min": [
                0
            ],
            "type": "SCALAR"
        },
        "accessor_18": {
            "bufferView": "bufferView_43",
            "byteOffset": 3768,
            "byteStride": 12,
            "componentType": 5126,
            "count": 240,
            "max": [
                0.951058,
                1,
                1
            ],
            "min": [
                -0.951058,
                -1,
                -1
            ],
            "type": "VEC3"
        },
        "accessor_20": {
            "bufferView": "bufferView_43",
            "byteOffset": 6648,
            "byteStride": 12,
            "componentType": 5126,
            "count": 240,
            "max": [
                0.992077,
                0.943522,
                0.943524
            ],
            "min": [
                -0.992077,
                -0.943522,
                -0.943524
            ],
            "type": "VEC3"
        },
        "accessor_36": {
            "bufferView": "bufferView_42",
            "byteOffset": 0,
            "byteStride": 2,
            "componentType": 5123,
            "count": 372,
            "max": [
                69
            ],
            "min": [
                0
            ],
            "type": "SCALAR"
        },
        "accessor_38": {
            "bufferView": "bufferView_43",
            "byteOffset": 0,
            "byteStride": 12,
            "componentType": 5126,
            "count": 157,
            "max": [
                1,
                1,
                1
            ],
            "min": [
                -1,
                -1,
                -1
            ],
            "type": "VEC3"
        },
        "accessor_40": {
            "bufferView": "bufferView_43",
            "byteOffset": 1884,
            "byteStride": 12,
            "componentType": 5126,
            "count": 157,
            "max": [
                0.727881,
                0.727881,
                1
            ],
            "min": [
                -0.727881,
                -0.727881,
                -1
            ],
            "type": "VEC3"
        }
    },
    "animations": {},
    "asset": {
        "generator": "collada2gltf@86001551e098fbb15e730607588efc2fc68ea93d",
        "premultipliedAlpha": true,
        "profile": {
            "api": "WebGL",
            "version": "1.0.2"
        },
        "version": "1.0.1"
    },
    "bufferViews": {
        "bufferView_42": {
            "buffer": "Projector2",
            "byteLength": 1224,
            "byteOffset": 0,
            "target": 34963
        },
        "bufferView_43": {
            "buffer": "Projector2",
            "byteLength": 9528,
            "byteOffset": 1224,
            "target": 34962
        }
    },
    "buffers": {
        "Projector2": {
            "byteLength": 10752,
            "type": "arraybuffer",
            "uri": "Projector2.bin"
        }
    },
    "extensionsUsed": [
        "KHR_materials_common"
    ],
    "materials": {
        "Material_144-effect": {
            "extensions": {
                "KHR_materials_common": {
                    "doubleSided": false,
                    "jointCount": 0,
                    "technique": "PHONG",
                    "transparent": false,
                    "values": {
                        "ambient": [
                            0,
                            0,
                            0,
                            1
                        ],
                        "diffuse": [
                            0.173693,
                            0.173693,
                            0.173693,
                            1
                        ],
                        "emission": [
                            0,
                            0,
                            0,
                            1
                        ],
                        "shininess": 25,
                        "specular": [
                            0.25,
                            0.25,
                            0.25,
                            1
                        ]
                    }
                }
            },
            "name": "Material_144"
        },
        "Material_145-effect": {
            "extensions": {
                "KHR_materials_common": {
                    "doubleSided": false,
                    "jointCount": 0,
                    "technique": "LAMBERT",
                    "transparent": false,
                    "values": {
                        "ambient": [
                            0,
                            0,
                            0,
                            1
                        ],
                        "diffuse": [
                            0.132868,
                            1,
                            1,
                            1
                        ],
                        "emission": [
                            0,
                            0,
                            0,
                            1
                        ]
                    }
                }
            },
            "name": "Material_145"
        }
    },
    "meshes": {
        "Cylinder_014-mesh": {
            "name": "Cylinder.014",
            "primitives": [
                {
                    "attributes": {
                        "NORMAL": "accessor_40",
                        "POSITION": "accessor_38"
                    },
                    "indices": "accessor_36",
                    "material": "Material_144-effect",
                    "mode": 4
                }
            ]
        },
        "Icosphere-mesh": {
            "name": "Icosphere",
            "primitives": [
                {
                    "attributes": {
                        "NORMAL": "accessor_20",
                        "POSITION": "accessor_18"
                    },
                    "indices": "accessor_16",
                    "material": "Material_145-effect",
                    "mode": 4
                }
            ]
        }
    },
    "nodes": {
        "Cylinder_014": {
            "children": [
                "Icosphere"
            ],
            "matrix": [
                0.019354,
                0,
                0.0168246,
                0,
                -0.0168246,
                -1.12096e-09,
                0.019354,
                0,
                1.00612e-09,
                -0.035084,
                -1.15739e-09,
                0,
                4.5,
                0.970251,
                2.95,
                1
            ],
            "meshes": [
                "Cylinder_014-mesh"
            ],
            "name": "Cylinder_014"
        },
        "Icosphere": {
            "children": [],
            "matrix": [
                0.377478,
                0,
                -2.57306e-09,
                0,
                6.85576e-16,
                -1.65001e-08,
                -0.275917,
                0,
                0,
                0.377478,
                -9.99562e-09,
                0,
                -0.894958,
                -0.213551,
                -1.90735e-06,
                1
            ],
            "meshes": [
                "Icosphere-mesh"
            ],
            "name": "Icosphere"
        },
        "node_2": {
            "children": [
                "Cylinder_014"
            ],
            "matrix": [
                1,
                0,
                0,
                0,
                0,
                0,
                -1,
                0,
                0,
                1,
                0,
                0,
                0,
                0,
                0,
                1
            ],
            "name": "Y_UP_Transform"
        }
    },
    "scene": "defaultScene",
    "scenes": {
        "defaultScene": {
            "nodes": [
                "node_2"
            ]
        }
    },
    "skins": {}
}