{
    "accessors": {
        "accessor_21": {
            "bufferView": "bufferView_29",
            "byteOffset": 0,
            "byteStride": 2,
            "componentType": 5123,
            "count": 36,
            "max": [
                17
            ],
            "min": [
                0
            ],
            "type": "SCALAR"
        },
        "accessor_23": {
            "bufferView": "bufferView_30",
            "byteOffset": 0,
            "byteStride": 12,
            "componentType": 5126,
            "count": 36,
            "max": [
                6,
                6,
                3
            ],
            "min": [
                -6,
                -6,
                0
            ],
            "type": "VEC3"
        },
        "accessor_25": {
            "bufferView": "bufferView_30",
            "byteOffset": 432,
            "byteStride": 12,
            "componentType": 5126,
            "count": 36,
            "max": [
                1,
                1,
                1
            ],
            "min": [
                -1,
                -1,
                -1
            ],
            "type": "VEC3"
        },
        "accessor_27": {
            "bufferView": "bufferView_30",
            "byteOffset": 864,
            "byteStride": 8,
            "componentType": 5126,
            "count": 36,
            "max": [
                1,
                1
            ],
            "min": [
                0,
                0
            ],
            "type": "VEC2"
        }
    },
    "animations": {},
    "asset": {
        "generator": "collada2gltf@86001551e098fbb15e730607588efc2fc68ea93d",
        "premultipliedAlpha": true,
        "profile": {
            "api": "WebGL",
            "version": "1.0.2"
        },
        "version": "1.0.1"
    },
    "bufferViews": {
        "bufferView_29": {
            "buffer": "WhiteRoomBox1",
            "byteLength": 72,
            "byteOffset": 0,
            "target": 34963
        },
        "bufferView_30": {
            "buffer": "WhiteRoomBox1",
            "byteLength": 1152,
            "byteOffset": 72,
            "target": 34962
        }
    },
    "buffers": {
        "WhiteRoomBox1": {
            "byteLength": 1224,
            "type": "arraybuffer",
            "uri": "WhiteRoomBox1.bin"
        }
    },
    "extensionsUsed": [
        "KHR_materials_common"
    ],
    "images": {
        "WhiteRoomBake_jpg": {
            "name": "WhiteRoomBake_jpg",
            "uri": "WhiteRoomBake.jpg"
        }
    },
    "materials": {
        "Material_175-effect": {
            "extensions": {
                "KHR_materials_common": {
                    "doubleSided": false,
                    "jointCount": 0,
                    "technique": "PHONG",
                    "transparent": false,
                    "values": {
                        "ambient": [
                            0,
                            0,
                            0,
                            1
                        ],
                        "diffuse": "texture_WhiteRoomBake_jpg",
                        "emission": [
                            0,
                            0,
                            0,
                            1
                        ],
                        "shininess": 25,
                        "specular": [
                            0.25,
                            0.25,
                            0.25,
                            1
                        ]
                    }
                }
            },
            "name": "Material_175"
        }
    },
    "meshes": {
        "Cube_021-mesh": {
            "name": "Cube.021",
            "primitives": [
                {
                    "attributes": {
                        "NORMAL": "accessor_25",
                        "POSITION": "accessor_23",
                        "TEXCOORD_0": "accessor_27"
                    },
                    "indices": "accessor_21",
                    "material": "Material_175-effect",
                    "mode": 4
                }
            ]
        }
    },
    "nodes": {
        "Cube_751": {
            "children": [],
            "meshes": [
                "Cube_021-mesh"
            ],
            "name": "Cube_751"
        },
        "node_1": {
            "children": [
                "Cube_751"
            ],
            "matrix": [
                1,
                0,
                0,
                0,
                0,
                0,
                -1,
                0,
                0,
                1,
                0,
                0,
                0,
                0,
                0,
                1
            ],
            "name": "Y_UP_Transform"
        }
    },
    "samplers": {
        "sampler_0": {
            "magFilter": 9729,
            "minFilter": 9729,
            "wrapS": 10497,
            "wrapT": 10497
        }
    },
    "scene": "defaultScene",
    "scenes": {
        "defaultScene": {
            "nodes": [
                "node_1"
            ]
        }
    },
    "skins": {},
    "textures": {
        "texture_WhiteRoomBake_jpg": {
            "format": 6408,
            "internalFormat": 6408,
            "sampler": "sampler_0",
            "source": "WhiteRoomBake_jpg",
            "target": 3553,
            "type": 5121
        }
    }
}