{
    "accessors": {
        "accessor_21": {
            "bufferView": "bufferView_29",
            "byteOffset": 0,
            "byteStride": 2,
            "componentType": 5123,
            "count": 1332,
            "max": [
                665
            ],
            "min": [
                0
            ],
            "type": "SCALAR"
        },
        "accessor_23": {
            "bufferView": "bufferView_30",
            "byteOffset": 0,
            "byteStride": 12,
            "componentType": 5126,
            "count": 1332,
            "max": [
                31.8664,
                32.7222,
                2.61997
            ],
            "min": [
                -31.8664,
                -11.1396,
                1.71842
            ],
            "type": "VEC3"
        },
        "accessor_25": {
            "bufferView": "bufferView_30",
            "byteOffset": 15984,
            "byteStride": 12,
            "componentType": 5126,
            "count": 1332,
            "max": [
                1,
                1,
                1
            ],
            "min": [
                -1,
                -1,
                -1
            ],
            "type": "VEC3"
        },
        "accessor_27": {
            "bufferView": "bufferView_30",
            "byteOffset": 31968,
            "byteStride": 8,
            "componentType": 5126,
            "count": 1332,
            "max": [
                1,
                1
            ],
            "min": [
                0.0117684,
                0.00970978
            ],
            "type": "VEC2"
        }
    },
    "animations": {},
    "asset": {
        "generator": "collada2gltf@c5ff32b2d555d43b96ab703fdf0b6695d29fc7d3",
        "premultipliedAlpha": true,
        "profile": {
            "api": "WebGL",
            "version": "1.0.2"
        },
        "version": "1.0.1"
    },
    "bufferViews": {
        "bufferView_29": {
            "buffer": "LCD",
            "byteLength": 2664,
            "byteOffset": 0,
            "target": 34963
        },
        "bufferView_30": {
            "buffer": "LCD",
            "byteLength": 42624,
            "byteOffset": 2664,
            "target": 34962
        }
    },
    "buffers": {
        "LCD": {
            "byteLength": 45288,
            "type": "arraybuffer",
            "uri": "LCD.bin"
        }
    },
    "extensionsUsed": [
        "KHR_materials_common"
    ],
    "images": {
        "SS_B_Albedo": {
            "name": "SS_B_Albedo",
            "uri": "SS_B_Albedo.jpg"
        }
    },
    "materials": {
        "SS_B_Mat_002-effect": {
            "extensions": {
                "KHR_materials_common": {
                    "doubleSided": false,
                    "jointCount": 0,
                    "technique": "PHONG",
                    "transparent": false,
                    "values": {
                        "ambient": [
                            0,
                            0,
                            0,
                            1
                        ],
                        "diffuse": "texture_SS_B_Albedo",
                        "emission": [
                            0,
                            0,
                            0,
                            1
                        ],
                        "shininess": 33,
                        "specular": [
                            0.35,
                            0.35,
                            0.35,
                            1
                        ]
                    }
                }
            },
            "name": "SS_B_Mat_002"
        }
    },
    "meshes": {
        "Untitled_009-mesh": {
            "name": "Untitled.009",
            "primitives": [
                {
                    "attributes": {
                        "NORMAL": "accessor_25",
                        "POSITION": "accessor_23",
                        "TEXCOORD_0": "accessor_27"
                    },
                    "indices": "accessor_21",
                    "material": "SS_B_Mat_002-effect",
                    "mode": 4
                }
            ]
        }
    },
    "nodes": {
        "LCD": {
            "children": [],
            "matrix": [
                0.01,
                0,
                0,
                0,
                0,
                -1.62921e-09,
                0.01,
                0,
                0,
                -0.01,
                -1.62921e-09,
                0,
                0,
                4.34435e-16,
                -3.89816e-16,
                1
            ],
            "meshes": [
                "Untitled_009-mesh"
            ],
            "name": "LCD"
        },
        "node_1": {
            "children": [
                "LCD"
            ],
            "matrix": [
                1,
                0,
                0,
                0,
                0,
                0,
                -1,
                0,
                0,
                1,
                0,
                0,
                0,
                0,
                0,
                1
            ],
            "name": "Y_UP_Transform"
        }
    },
    "samplers": {
        "sampler_0": {
            "magFilter": 9729,
            "minFilter": 9729,
            "wrapS": 10497,
            "wrapT": 10497
        }
    },
    "scene": "defaultScene",
    "scenes": {
        "defaultScene": {
            "nodes": [
                "node_1"
            ]
        }
    },
    "skins": {},
    "textures": {
        "texture_SS_B_Albedo": {
            "format": 6408,
            "internalFormat": 6408,
            "sampler": "sampler_0",
            "source": "SS_B_Albedo",
            "target": 3553,
            "type": 5121
        }
    }
}