{
    "accessors": {
        "accessor_21": {
            "bufferView": "bufferView_29",
            "byteOffset": 0,
            "byteStride": 2,
            "componentType": 5123,
            "count": 25716,
            "max": [
                12857
            ],
            "min": [
                0
            ],
            "type": "SCALAR"
        },
        "accessor_23": {
            "bufferView": "bufferView_30",
            "byteOffset": 0,
            "byteStride": 12,
            "componentType": 5126,
            "count": 25716,
            "max": [
                10.8539,
                2.9144,
                10.7651
            ],
            "min": [
                -10.8573,
                0.851533,
                -8.19995
            ],
            "type": "VEC3"
        },
        "accessor_25": {
            "bufferView": "bufferView_30",
            "byteOffset": 308592,
            "byteStride": 12,
            "componentType": 5126,
            "count": 25716,
            "max": [
                1,
                0.999996,
                0.999984
            ],
            "min": [
                -0.999999,
                -0.99998,
                -0.999999
            ],
            "type": "VEC3"
        },
        "accessor_27": {
            "bufferView": "bufferView_30",
            "byteOffset": 617184,
            "byteStride": 8,
            "componentType": 5126,
            "count": 25716,
            "max": [
                1,
                1
            ],
            "min": [
                0,
                0
            ],
            "type": "VEC2"
        }
    },
    "animations": {},
    "asset": {
        "generator": "collada2gltf@c5ff32b2d555d43b96ab703fdf0b6695d29fc7d3",
        "premultipliedAlpha": true,
        "profile": {
            "api": "WebGL",
            "version": "1.0.2"
        },
        "version": "1.0.1"
    },
    "bufferViews": {
        "bufferView_29": {
            "buffer": "Motherboard",
            "byteLength": 51432,
            "byteOffset": 0,
            "target": 34963
        },
        "bufferView_30": {
            "buffer": "Motherboard",
            "byteLength": 822912,
            "byteOffset": 51432,
            "target": 34962
        }
    },
    "buffers": {
        "Motherboard": {
            "byteLength": 874344,
            "type": "arraybuffer",
            "uri": "Motherboard.bin"
        }
    },
    "extensionsUsed": [
        "KHR_materials_common"
    ],
    "images": {
        "SS_A_Albedo_jpg": {
            "name": "SS_A_Albedo_jpg",
            "uri": "SS_A_Albedo.jpg"
        },
        "SurfaceStudio_A_specular_jpg": {
            "name": "SurfaceStudio_A_specular_jpg",
            "uri": "SurfaceStudio_A_specular.jpg"
        }
    },
    "materials": {
        "SS_A_Mat_008-effect": {
            "extensions": {
                "KHR_materials_common": {
                    "doubleSided": false,
                    "jointCount": 0,
                    "technique": "PHONG",
                    "transparent": false,
                    "values": {
                        "ambient": [
                            0,
                            0,
                            0,
                            1
                        ],
                        "diffuse": "texture_SS_A_Albedo_jpg",
                        "emission": [
                            0,
                            0,
                            0,
                            1
                        ],
                        "shininess": 200,
                        "specular": "texture_SurfaceStudio_A_specular_jpg"
                    }
                }
            },
            "name": "SS_A_Mat_008"
        }
    },
    "meshes": {
        "Untitled_014-mesh": {
            "name": "Untitled.014",
            "primitives": [
                {
                    "attributes": {
                        "NORMAL": "accessor_25",
                        "POSITION": "accessor_23",
                        "TEXCOORD_0": "accessor_27"
                    },
                    "indices": "accessor_21",
                    "material": "SS_A_Mat_008-effect",
                    "mode": 4
                }
            ]
        }
    },
    "nodes": {
        "Motherboard_Low": {
            "children": [],
            "matrix": [
                0.01,
                0,
                0,
                0,
                0,
                -1.62921e-09,
                0.01,
                0,
                0,
                -0.01,
                -1.62921e-09,
                0,
                0,
                0,
                0,
                1
            ],
            "meshes": [
                "Untitled_014-mesh"
            ],
            "name": "Motherboard_Low"
        },
        "node_1": {
            "children": [
                "Motherboard_Low"
            ],
            "matrix": [
                1,
                0,
                0,
                0,
                0,
                0,
                -1,
                0,
                0,
                1,
                0,
                0,
                0,
                0,
                0,
                1
            ],
            "name": "Y_UP_Transform"
        }
    },
    "samplers": {
        "sampler_0": {
            "magFilter": 9729,
            "minFilter": 9729,
            "wrapS": 10497,
            "wrapT": 10497
        }
    },
    "scene": "defaultScene",
    "scenes": {
        "defaultScene": {
            "nodes": [
                "node_1"
            ]
        }
    },
    "skins": {},
    "textures": {
        "texture_SS_A_Albedo_jpg": {
            "format": 6408,
            "internalFormat": 6408,
            "sampler": "sampler_0",
            "source": "SS_A_Albedo_jpg",
            "target": 3553,
            "type": 5121
        },
        "texture_SurfaceStudio_A_specular_jpg": {
            "format": 6408,
            "internalFormat": 6408,
            "sampler": "sampler_0",
            "source": "SurfaceStudio_A_specular_jpg",
            "target": 3553,
            "type": 5121
        }
    }
}