{
    "accessors": {
        "accessor_21": {
            "bufferView": "bufferView_29",
            "byteOffset": 0,
            "byteStride": 2,
            "componentType": 5123,
            "count": 2364,
            "max": [
                1181
            ],
            "min": [
                0
            ],
            "type": "SCALAR"
        },
        "accessor_23": {
            "bufferView": "bufferView_30",
            "byteOffset": 0,
            "byteStride": 12,
            "componentType": 5126,
            "count": 2364,
            "max": [
                1.32602,
                24.3064,
                1.29699
            ],
            "min": [
                -1.32602,
                -1.29032,
                -1.30621
            ],
            "type": "VEC3"
        },
        "accessor_25": {
            "bufferView": "bufferView_30",
            "byteOffset": 28368,
            "byteStride": 12,
            "componentType": 5126,
            "count": 2364,
            "max": [
                1,
                0.999267,
                0.99999
            ],
            "min": [
                -1,
                -0.992942,
                -0.999889
            ],
            "type": "VEC3"
        },
        "accessor_27": {
            "bufferView": "bufferView_30",
            "byteOffset": 56736,
            "byteStride": 8,
            "componentType": 5126,
            "count": 2364,
            "max": [
                0.977291,
                0.173694
            ],
            "min": [
                0.894128,
                0.0176982
            ],
            "type": "VEC2"
        }
    },
    "animations": {},
    "asset": {
        "generator": "collada2gltf@c5ff32b2d555d43b96ab703fdf0b6695d29fc7d3",
        "premultipliedAlpha": true,
        "profile": {
            "api": "WebGL",
            "version": "1.0.2"
        },
        "version": "1.0.1"
    },
    "bufferViews": {
        "bufferView_29": {
            "buffer": "R_Arm",
            "byteLength": 4728,
            "byteOffset": 0,
            "target": 34963
        },
        "bufferView_30": {
            "buffer": "R_Arm",
            "byteLength": 75648,
            "byteOffset": 4728,
            "target": 34962
        }
    },
    "buffers": {
        "R_Arm": {
            "byteLength": 80376,
            "type": "arraybuffer",
            "uri": "R_Arm.bin"
        }
    },
    "extensionsUsed": [
        "KHR_materials_common"
    ],
    "images": {
        "SS_B_Albedo": {
            "name": "SS_B_Albedo",
            "uri": "SS_B_Albedo.jpg"
        }
    },
    "materials": {
        "SS_B_Mat_003-effect": {
            "extensions": {
                "KHR_materials_common": {
                    "doubleSided": false,
                    "jointCount": 0,
                    "technique": "PHONG",
                    "transparent": false,
                    "values": {
                        "ambient": [
                            0,
                            0,
                            0,
                            1
                        ],
                        "diffuse": "texture_SS_B_Albedo",
                        "emission": [
                            0,
                            0,
                            0,
                            1
                        ],
                        "shininess": 100,
                        "specular": [
                            0.25,
                            0.25,
                            0.25,
                            1
                        ]
                    }
                }
            },
            "name": "SS_B_Mat_003"
        }
    },
    "meshes": {
        "Untitled_007-mesh": {
            "name": "Untitled.007",
            "primitives": [
                {
                    "attributes": {
                        "NORMAL": "accessor_25",
                        "POSITION": "accessor_23",
                        "TEXCOORD_0": "accessor_27"
                    },
                    "indices": "accessor_21",
                    "material": "SS_B_Mat_003-effect",
                    "mode": 4
                }
            ]
        }
    },
    "nodes": {
        "node_1": {
            "children": [
                "r_arm_geo"
            ],
            "matrix": [
                1,
                0,
                0,
                0,
                0,
                0,
                -1,
                0,
                0,
                1,
                0,
                0,
                0,
                0,
                0,
                1
            ],
            "name": "Y_UP_Transform"
        },
        "r_arm_geo": {
            "children": [],
            "matrix": [
                0.01,
                0,
                0,
                0,
                0,
                -1.62921e-09,
                0.01,
                0,
                0,
                -0.01,
                -1.62921e-09,
                0,
                0,
                0,
                0,
                1
            ],
            "meshes": [
                "Untitled_007-mesh"
            ],
            "name": "r_arm_geo"
        }
    },
    "samplers": {
        "sampler_0": {
            "magFilter": 9729,
            "minFilter": 9729,
            "wrapS": 10497,
            "wrapT": 10497
        }
    },
    "scene": "defaultScene",
    "scenes": {
        "defaultScene": {
            "nodes": [
                "node_1"
            ]
        }
    },
    "skins": {},
    "textures": {
        "texture_SS_B_Albedo": {
            "format": 6408,
            "internalFormat": 6408,
            "sampler": "sampler_0",
            "source": "SS_B_Albedo",
            "target": 3553,
            "type": 5121
        }
    }
}