{
    "accessors": {
        "accessor_21": {
            "bufferView": "bufferView_29",
            "byteOffset": 0,
            "byteStride": 2,
            "componentType": 5123,
            "count": 14052,
            "max": [
                7025
            ],
            "min": [
                0
            ],
            "type": "SCALAR"
        },
        "accessor_23": {
            "bufferView": "bufferView_30",
            "byteOffset": 0,
            "byteStride": 12,
            "componentType": 5126,
            "count": 14052,
            "max": [
                12.3887,
                2.84048,
                11.8095
            ],
            "min": [
                -12.4001,
                -0.142688,
                -10.0179
            ],
            "type": "VEC3"
        },
        "accessor_25": {
            "bufferView": "bufferView_30",
            "byteOffset": 168624,
            "byteStride": 12,
            "componentType": 5126,
            "count": 14052,
            "max": [
                0.999999,
                0.99998,
                0.999981
            ],
            "min": [
                -0.999999,
                -0.999997,
                -0.99999
            ],
            "type": "VEC3"
        },
        "accessor_27": {
            "bufferView": "bufferView_30",
            "byteOffset": 337248,
            "byteStride": 8,
            "componentType": 5126,
            "count": 14052,
            "max": [
                0.89009,
                1
            ],
            "min": [
                0.500112,
                0.503872
            ],
            "type": "VEC2"
        }
    },
    "animations": {},
    "asset": {
        "generator": "collada2gltf@c5ff32b2d555d43b96ab703fdf0b6695d29fc7d3",
        "premultipliedAlpha": true,
        "profile": {
            "api": "WebGL",
            "version": "1.0.2"
        },
        "version": "1.0.1"
    },
    "bufferViews": {
        "bufferView_29": {
            "buffer": "TowerBase",
            "byteLength": 28104,
            "byteOffset": 0,
            "target": 34963
        },
        "bufferView_30": {
            "buffer": "TowerBase",
            "byteLength": 449664,
            "byteOffset": 28104,
            "target": 34962
        }
    },
    "buffers": {
        "TowerBase": {
            "byteLength": 477768,
            "type": "arraybuffer",
            "uri": "TowerBase.bin"
        }
    },
    "extensionsUsed": [
        "KHR_materials_common"
    ],
    "images": {
        "SS_A_Albedo_jpg": {
            "name": "SS_A_Albedo_jpg",
            "uri": "SS_A_Albedo.jpg"
        },
        "noise_png": {
            "name": "noise_png",
            "uri": "noise.png"
        }
    },
    "materials": {
        "SS_A_Mat_004-effect": {
            "extensions": {
                "KHR_materials_common": {
                    "doubleSided": false,
                    "jointCount": 0,
                    "technique": "PHONG",
                    "transparent": false,
                    "values": {
                        "ambient": [
                            0,
                            0,
                            0,
                            1
                        ],
                        "diffuse": "texture_SS_A_Albedo_jpg",
                        "emission": [
                            0,
                            0,
                            0,
                            1
                        ],
                        "shininess": 150,
                        "specular": "texture_noise_png"
                    }
                }
            },
            "name": "SS_A_Mat_004"
        }
    },
    "meshes": {
        "Untitled_012-mesh": {
            "name": "Untitled.012",
            "primitives": [
                {
                    "attributes": {
                        "NORMAL": "accessor_25",
                        "POSITION": "accessor_23",
                        "TEXCOORD_0": "accessor_27"
                    },
                    "indices": "accessor_21",
                    "material": "SS_A_Mat_004-effect",
                    "mode": 4
                }
            ]
        }
    },
    "nodes": {
        "node_1": {
            "children": [
                "towerBase_Low"
            ],
            "matrix": [
                1,
                0,
                0,
                0,
                0,
                0,
                -1,
                0,
                0,
                1,
                0,
                0,
                0,
                0,
                0,
                1
            ],
            "name": "Y_UP_Transform"
        },
        "towerBase_Low": {
            "children": [],
            "matrix": [
                0.01,
                0,
                0,
                0,
                0,
                -1.62921e-09,
                0.01,
                0,
                0,
                -0.01,
                -1.62921e-09,
                0,
                0,
                0,
                0,
                1
            ],
            "meshes": [
                "Untitled_012-mesh"
            ],
            "name": "towerBase_Low"
        }
    },
    "samplers": {
        "sampler_0": {
            "magFilter": 9729,
            "minFilter": 9729,
            "wrapS": 10497,
            "wrapT": 10497
        }
    },
    "scene": "defaultScene",
    "scenes": {
        "defaultScene": {
            "nodes": [
                "node_1"
            ]
        }
    },
    "skins": {},
    "textures": {
        "texture_SS_A_Albedo_jpg": {
            "format": 6408,
            "internalFormat": 6408,
            "sampler": "sampler_0",
            "source": "SS_A_Albedo_jpg",
            "target": 3553,
            "type": 5121
        },
        "texture_noise_png": {
            "format": 6408,
            "internalFormat": 6408,
            "sampler": "sampler_0",
            "source": "noise_png",
            "target": 3553,
            "type": 5121
        }
    }
}