{
    "accessors": {
        "accessor_21": {
            "bufferView": "bufferView_29",
            "byteOffset": 0,
            "byteStride": 2,
            "componentType": 5123,
            "count": 3600,
            "max": [
                1799
            ],
            "min": [
                0
            ],
            "type": "SCALAR"
        },
        "accessor_23": {
            "bufferView": "bufferView_30",
            "byteOffset": 0,
            "byteStride": 12,
            "componentType": 5126,
            "count": 3600,
            "max": [
                12.5024,
                3.28885,
                11.9393
            ],
            "min": [
                -12.5139,
                0.373503,
                -12.6618
            ],
            "type": "VEC3"
        },
        "accessor_25": {
            "bufferView": "bufferView_30",
            "byteOffset": 43200,
            "byteStride": 12,
            "componentType": 5126,
            "count": 3600,
            "max": [
                0.999996,
                0.999919,
                0.999922
            ],
            "min": [
                -0.999996,
                -0.999968,
                -0.999923
            ],
            "type": "VEC3"
        },
        "accessor_27": {
            "bufferView": "bufferView_30",
            "byteOffset": 86400,
            "byteStride": 8,
            "componentType": 5126,
            "count": 3600,
            "max": [
                0.5,
                1
            ],
            "min": [
                0,
                0.5
            ],
            "type": "VEC2"
        }
    },
    "animations": {},
    "asset": {
        "generator": "collada2gltf@c5ff32b2d555d43b96ab703fdf0b6695d29fc7d3",
        "premultipliedAlpha": true,
        "profile": {
            "api": "WebGL",
            "version": "1.0.2"
        },
        "version": "1.0.1"
    },
    "bufferViews": {
        "bufferView_29": {
            "buffer": "TowerCap",
            "byteLength": 7200,
            "byteOffset": 0,
            "target": 34963
        },
        "bufferView_30": {
            "buffer": "TowerCap",
            "byteLength": 115200,
            "byteOffset": 7200,
            "target": 34962
        }
    },
    "buffers": {
        "TowerCap": {
            "byteLength": 122400,
            "type": "arraybuffer",
            "uri": "TowerCap.bin"
        }
    },
    "extensionsUsed": [
        "KHR_materials_common"
    ],
    "images": {
        "SS_B_Albedo_jpg": {
            "name": "SS_B_Albedo_jpg",
            "uri": "SS_B_Albedo.jpg"
        },
        "noise_png": {
            "name": "noise_png",
            "uri": "noise.png"
        }
    },
    "materials": {
        "SS_B_Mat_001-effect": {
            "extensions": {
                "KHR_materials_common": {
                    "doubleSided": false,
                    "jointCount": 0,
                    "technique": "PHONG",
                    "transparent": false,
                    "values": {
                        "ambient": [
                            0,
                            0,
                            0,
                            1
                        ],
                        "diffuse": "texture_SS_B_Albedo_jpg",
                        "emission": [
                            0,
                            0,
                            0,
                            1
                        ],
                        "shininess": 100,
                        "specular": "texture_noise_png"
                    }
                }
            },
            "name": "SS_B_Mat_001"
        }
    },
    "meshes": {
        "Untitled_013-mesh": {
            "name": "Untitled.013",
            "primitives": [
                {
                    "attributes": {
                        "NORMAL": "accessor_25",
                        "POSITION": "accessor_23",
                        "TEXCOORD_0": "accessor_27"
                    },
                    "indices": "accessor_21",
                    "material": "SS_B_Mat_001-effect",
                    "mode": 4
                }
            ]
        }
    },
    "nodes": {
        "node_1": {
            "children": [
                "towerCap_Low"
            ],
            "matrix": [
                1,
                0,
                0,
                0,
                0,
                0,
                -1,
                0,
                0,
                1,
                0,
                0,
                0,
                0,
                0,
                1
            ],
            "name": "Y_UP_Transform"
        },
        "towerCap_Low": {
            "children": [],
            "matrix": [
                0.01,
                0,
                0,
                0,
                0,
                -1.62921e-09,
                0.01,
                0,
                0,
                -0.01,
                -1.62921e-09,
                0,
                0,
                0,
                0,
                1
            ],
            "meshes": [
                "Untitled_013-mesh"
            ],
            "name": "towerCap_Low"
        }
    },
    "samplers": {
        "sampler_0": {
            "magFilter": 9729,
            "minFilter": 9729,
            "wrapS": 10497,
            "wrapT": 10497
        }
    },
    "scene": "defaultScene",
    "scenes": {
        "defaultScene": {
            "nodes": [
                "node_1"
            ]
        }
    },
    "skins": {},
    "textures": {
        "texture_SS_B_Albedo_jpg": {
            "format": 6408,
            "internalFormat": 6408,
            "sampler": "sampler_0",
            "source": "SS_B_Albedo_jpg",
            "target": 3553,
            "type": 5121
        },
        "texture_noise_png": {
            "format": 6408,
            "internalFormat": 6408,
            "sampler": "sampler_0",
            "source": "noise_png",
            "target": 3553,
            "type": 5121
        }
    }
}